PathFileType	4	(X/Y/Z)	12_2_106_p1_0-472_filt_butterworth.trc
DataRate	CameraRate	NumFrames	NumMarkers	Units	OrigDataRate	OrigDataStartFrame	OrigNumFrames
60.0	60.0	6	27	m	60.0	177	472
Frame#	Time	RHip			RKnee			RAnkle			RBigToe			RSmallToe			RHeel			LHip			LKnee			LAnkle			LBigToe			LSmallToe			LHeel			Neck			Head			Nose			RShoulder			RElbow			RWrist			RThumb			RIndex			RPinky			LShoulder			LElbow			LWrist			LThumb			LIndex			LPinky			
		X1	Y1	Z1	X2	Y2	Z2	X3	Y3	Z3	X4	Y4	Z4	X5	Y5	Z5	X6	Y6	Z6	X7	Y7	Z7	X8	Y8	Z8	X9	Y9	Z9	X10	Y10	Z10	X11	Y11	Z11	X12	Y12	Z12	X13	Y13	Z13	X14	Y14	Z14	X15	Y15	Z15	X16	Y16	Z16	X17	Y17	Z17	X18	Y18	Z18	X19	Y19	Z19	X20	Y20	Z20	X21	Y21	Z21	X22	Y22	Z22	X23	Y23	Z23	X24	Y24	Z24	X25	Y25	Z25	X26	Y26	Z26	X27	Y27	Z27	
177	2.95	0.4409221424431702	0.4962223619858598	1.0426540278645735	0.48091808475470377	0.5560841176444825	1.5093915541089178	0.48718899771707735	0.626376272941128	1.9368867996366832	0.4737880491141716	0.38001105970527055	1.9209298576486695	0.5262301947775422	0.42835179147098607	1.9302057226814813	0.4754057826390977	0.6677392166668538	2.0139860044414073	0.23697563575279712	0.491290473579091	1.0640404713866976	0.2727841121214488	0.5484762724301924	1.5283966756978713	0.327857808027907	0.5894859662653852	1.951079030532203	0.33747867808885507	0.38250809616862624	1.9502285029594806	0.2757883047256502	0.4190902341120001	1.938524164092838	0.3440336748933544	0.648976257147063	2.016799927836605	0.2872231464075983	0.5126668710910192	0.4556190667399922	0.37454211385490366	0.3948712592912225	0.18314197846226288	0.3799603192325001	0.3882295907075143	0.3548818694865553	0.4372483993557698	0.5693862211245668	0.4462969780667622	0.6273742376895678	0.5672308467495291	0.2499023242838534	0.5146227945224083	0.5288104806683517	0.052063412592785664	0.4149514147948885	0.5427509730316074	0.046237960548875655	0.41596606893703414	0.5433339046881507	0.028720564268872387	0.4837230189805812	0.5504490061783667	-0.00033569106587366324	0.11342279889320395	0.5221590493013625	0.4973624181468616	-0.09416847581030183	0.40144184973295455	0.5879905454885708	-0.23797782139246382	0.24816923838077362	0.5763625080668293	-0.2803849720255725	0.16506670205668802	0.5915399926869969	-0.303565140983201	0.165285669686612	0.5838290638151438	-0.29787145509245183	0.18958555264108157	0.6210316971297636
178	2.966666666666667	0.44108775408185863	0.49545529247925957	1.040742723221931	0.48077794784522293	0.5557495629134056	1.5077804647247401	0.48755166556420587	0.6266043227436673	1.936574563092718	0.47363134907792553	0.3800834699633693	1.9222945066644508	0.5260764105415229	0.4290975722425207	1.9291711523856412	0.47522601063350944	0.6674878784744765	2.013797864023596	0.23712167033790627	0.4910527807045023	1.0639054377280568	0.27286868519183155	0.5483011614648964	1.5266256932146445	0.32780284281532723	0.5881856723553772	1.9509176046416217	0.33740646948844977	0.38215639652482253	1.9503321360228685	0.2763034815636883	0.417701049236303	1.9375823617337922	0.3439669674559366	0.6488047975015439	2.016729542990972	0.28355715827621525	0.512138628167389	0.4543768755808463	0.3632038878244993	0.399891935833441	0.1820470828286566	0.3719586224882549	0.39494836568262975	0.3536282141501275	0.4362731520154152	0.5690635624560436	0.44640515381386475	0.6272620838930387	0.5633385328858357	0.2505173221641962	0.5438139167407625	0.5117248471619119	0.03552787976599829	0.45419661199748895	0.5237434873277658	0.006522471654837703	0.45871887717089765	0.5252738599447759	-0.006960754427288145	0.518792232845991	0.5297129418822961	-0.027295376477836353	0.11089205819708137	0.5220902584117569	0.4982719619023233	-0.1022631069534509	0.3966604543002126	0.5886133081631847	-0.2330517938038646	0.24443791642719	0.5488381629935356	-0.2653903403453002	0.16486443983858962	0.5496434335076045	-0.2883649378004293	0.15584497125187347	0.5403212231757847	-0.28749324770116613	0.1815224052441541	0.5807027077901391
179	2.9833333333333334	0.44189406313094104	0.4921592008157941	1.0383743988945984	0.4804726162527858	0.5553291065126903	1.5054418172229664	0.48876598644238517	0.6270118750265292	1.936598189267862	0.47357305490671064	0.38014737892711103	1.9228187216948407	0.5266063845111277	0.42653594135171446	1.9259985962985158	0.47492716689391345	0.667242493199461	2.0134491871790936	0.23717706987857762	0.49124528471483775	1.0638613575244886	0.2728490965204068	0.5482251430366347	1.526081863188731	0.32786756622620583	0.5881392071905744	1.9510691499506676	0.33743214327968474	0.3824121387890616	1.9504426830029271	0.2763999292667366	0.4174259535973865	1.9375112917655306	0.3439132296732047	0.6486001004218704	2.0164536427696715	0.28071591449795974	0.5118081204851428	0.4531166785867253	0.3507982101206544	0.4029126646572625	0.1814315796427588	0.36340511379657975	0.3985361546866652	0.35315688202720236	0.43454025788947476	0.56846096896065	0.4455999584161953	0.6259993853140124	0.5566403713097948	0.25075277367735527	0.574745222105	0.4960725310825009	0.023492619619603965	0.5019060944573339	0.5014899565673049	-0.0271392204162313	0.5108050761064263	0.501476775878079	-0.035659634305241744	0.5624590540978165	0.5015069368013432	-0.04528886599253853	0.10876393988213096	0.5221928041887028	0.49917734263202485	-0.11497806873963454	0.40973379218786715	0.589797428331051	-0.22577326893758137	0.24906312884653725	0.5198630134464759	-0.24769074311334954	0.17210791175198503	0.5041798236598952	-0.2720169586308436	0.1513745563161712	0.49549608024846864	-0.27433596929046616	0.18072185527421056	0.5375520481748103
180	3.0	0.4431051659578589	0.48723277534555975	1.0361450688522147	0.48005279117515753	0.5551832827895729	1.5039203480721701	0.4902692881569959	0.6273999513593198	1.9366233002043378	0.47357709055089375	0.3801988724091675	1.9228097258187185	0.5275168719730202	0.42155715160214163	1.9221978239898556	0.4744362057468273	0.6670250513005551	2.0131727335229708	0.23677086167024503	0.4928703897909861	1.0643850170238611	0.2728091722621282	0.5482500889138313	1.526613917334109	0.32793137997392374	0.5884484845723588	1.9512520138798204	0.33737842491364445	0.3836921174644451	1.9511693261760716	0.27639265252307205	0.4172634758591892	1.937498289202409	0.3438580378193159	0.6484040887716995	2.0161879117745753	0.27779177901168856	0.5111601825235501	0.4519270251243901	0.33888993754235924	0.4042932596826851	0.18142287882385696	0.3543768466287749	0.39909756479804714	0.3536338162134823	0.4322017124753934	0.5679988744556571	0.4430563196971163	0.6231942375411844	0.5491733576118828	0.25005827591597357	0.604469324953756	0.4796169314794349	0.01959534792929354	0.5534172060636643	0.4731456231426001	-0.04751387031992272	0.5651342230721899	0.4731570260799657	-0.05268897427923902	0.6110099217504568	0.46708909175982005	-0.05101324252149295	0.1066118459031342	0.5222167239701124	0.4992613640333239	-0.1316143444689113	0.4362768964312605	0.5894668272482751	-0.21392520787287675	0.2610512700466132	0.4883215714426692	-0.22406073728886686	0.17882085313213902	0.45644930284468316	-0.25026511343357316	0.15102319644441273	0.44871823052234655	-0.25684211821899067	0.1848271184435486	0.4918544247800097
181	3.0166666666666666	0.44406908194273287	0.48326971995477475	1.0346419208478945	0.4796845280876011	0.5553862105107136	1.5038867862317116	0.49132222350820265	0.6275167992348496	1.936556895870833	0.4736045296692457	0.3802291624595421	1.922683620179221	0.5283316463651209	0.4176166358333326	1.9203463279901327	0.4738356332568745	0.6667095552210683	2.0129144512037276	0.23562495409545023	0.49661573573494	1.0657968584861268	0.27271860178837626	0.5483270392871675	1.5279150232216536	0.3279706354806822	0.588698340772378	1.951364237542331	0.33719240550777796	0.3864620448865989	1.9530964784742642	0.27641282548888507	0.41736707516869	1.937625942351061	0.34380228543444685	0.6482832450867809	2.0160323730023686	0.27428230431147277	0.5106995433882147	0.450426001154834	0.328567088955461	0.4049431143821369	0.18171237609930474	0.34552969173705983	0.3974030621712599	0.3541808796864608	0.42942976859252235	0.5680920136398431	0.43905145019294534	0.6198785060091528	0.5432638923678547	0.2488211355864413	0.6328909299692114	0.4641204702259463	0.024270545068257793	0.6036352410788034	0.44206598755896026	-0.05292153259813332	0.6158334930019685	0.4465158602436833	-0.05737050245859035	0.6586004847867389	0.43045863519029726	-0.045338712674719915	0.1045549562425853	0.522023439217941	0.49803293787423086	-0.1481135158880608	0.4635974960300753	0.5853403452550101	-0.1969222859768494	0.27477879878884987	0.453895324465017	-0.19434506339153523	0.1831012796165328	0.40831873840892163	-0.22111520989527278	0.1538911587030857	0.40016596809256794	-0.23554653839532844	0.18979342028603227	0.4429408684437878
182	3.033333333333333	0.44451140981887893	0.4818647488793617	1.033730446814238	0.47954217171930275	0.5553601253918591	1.5046641053601386	0.49180688231637243	0.6276484624541271	1.9367740882391633	0.47364258227131123	0.3802615763928998	1.9226407545461668	0.5291209055132876	0.4170838861438936	1.9216740656406055	0.4733446938386344	0.6662632009833112	2.012647423098923	0.23408218863344815	0.5014163801326297	1.0676714440803317	0.2725869168485369	0.5484411047900803	1.5294450060374953	0.3279962835221709	0.588801884808791	1.9514111380522698	0.3369429417394267	0.38983303672080116	1.9556390323459703	0.27633388005087356	0.4188756488979091	1.938841847863205	0.34377591134363594	0.6482731918360992	2.016020134456992	0.2699522427342351	0.5124591173431257	0.4490437828088498	0.3204401560436935	0.40536420611872154	0.18179013817813247	0.337841042473289	0.3933494358123562	0.3539077680777426	0.426295756063349	0.5686818288595509	0.4351553595905844	0.6181053572525663	0.5401697625034979	0.24844497671237603	0.6596198332053016	0.4512545767016833	0.0349111468294933	0.647248325561051	0.41932966096528573	-0.046836056795833136	0.6587871604231677	0.42869177659191215	-0.05238554855509742	0.6992516006020868	0.3977187868580112	-0.0330195623855088	0.10280977166516865	0.5214695341870785	0.4959736395468767	-0.16060693372331006	0.47931237531339926	0.5772959891611672	-0.17763140617199696	0.28697629468285557	0.4192248547349686	-0.1613095261754846	0.1912664507599366	0.3622714267690202	-0.1865423306292429	0.16262799063546232	0.35205628343255047	-0.2132334293266267	0.1979972717330408	0.39217017060863124
